<svg width="16" height="16" viewBox="0 0 16 16" fill="none" xmlns="http://www.w3.org/2000/svg">
  <!-- Ptah - Compact toolbar version -->

  <!-- Nemes headdress - top curve -->
  <path d="M8 1.5c-2.2 0-4 1.5-4 3.5v1" stroke="#C5C5C5" stroke-width="1.2" stroke-linecap="round"/>
  <path d="M8 1.5c2.2 0 4 1.5 4 3.5v1" stroke="#C5C5C5" stroke-width="1.2" stroke-linecap="round"/>

  <!-- Headdress band -->
  <line x1="4" y1="5" x2="12" y2="5" stroke="#C5C5C5" stroke-width="0.8"/>

  <!-- Headdress side lappets -->
  <path d="M4 6v4.5c0 .5-.3.8-.7 1l-.8.5" stroke="#C5C5C5" stroke-width="1.1" stroke-linecap="round"/>
  <path d="M12 6v4.5c0 .5.3.8.7 1l.8.5" stroke="#C5C5C5" stroke-width="1.1" stroke-linecap="round"/>

  <!-- Face outline -->
  <path d="M5.5 6v2c0 1.7 1.1 3 2.5 3s2.5-1.3 2.5-3V6" stroke="#C5C5C5" stroke-width="1.1"/>

  <!-- Eyes -->
  <line x1="6.2" y1="7.8" x2="7.5" y2="7.8" stroke="#C5C5C5" stroke-width="1" stroke-linecap="round"/>
  <line x1="8.5" y1="7.8" x2="9.8" y2="7.8" stroke="#C5C5C5" stroke-width="1" stroke-linecap="round"/>

  <!-- Uraeus -->
  <circle cx="8" cy="3.5" r="0.6" fill="#C5C5C5"/>

  <!-- Divine beard -->
  <path d="M8 11v3.5" stroke="#C5C5C5" stroke-width="1.3" stroke-linecap="round"/>
</svg>
